<svg width="96" height="96" viewBox="0 0 96 96" fill="none" xmlns="http://www.w3.org/2000/svg">
<g clip-path="url(#clip0_5_5)">
<path d="M80 24H68V16C68 11.56 64.44 8 60 8H36C31.56 8 28 11.56 28 16V24H16C11.56 24 8 27.56 8 32V76C8 80.44 11.56 84 16 84H80C84.44 84 88 80.44 88 76V32C88 27.56 84.44 24 80 24ZM36 16H60V24H36V16ZM80 76H16V68H80V76ZM80 56H16V32H28V40H36V32H60V40H68V32H80V56Z" fill="#EBC351"/>
</g>
<defs>
<clipPath id="clip0_5_5">
<rect width="96" height="96" fill="white"/>
</clipPath>
</defs>
</svg>
